<svg width="25" height="24" viewBox="0 0 25 24" fill="none" xmlns="http://www.w3.org/2000/svg">
<path d="M19.6503 7.997C19.6633 8.172 19.6633 8.346 19.6633 8.52C19.6633 13.845 15.6103 19.981 8.20333 19.981C5.92133 19.981 3.80133 19.32 2.01733 18.172C2.34133 18.209 2.65333 18.222 2.99033 18.222C4.80333 18.2264 6.56498 17.6201 7.99133 16.501C7.15076 16.4858 6.33591 16.2085 5.66057 15.7077C4.98523 15.207 4.48312 14.5079 4.22433 13.708C4.47333 13.745 4.72333 13.77 4.98533 13.77C5.34633 13.77 5.70933 13.72 6.04633 13.633C5.13409 13.4488 4.31381 12.9543 3.72495 12.2337C3.1361 11.513 2.81503 10.6106 2.81633 9.68V9.63C3.35333 9.929 3.97633 10.116 4.63633 10.141C4.08342 9.77358 3.63005 9.27502 3.31667 8.68979C3.00329 8.10456 2.83965 7.45085 2.84033 6.787C2.84033 6.039 3.03933 5.353 3.38833 4.755C4.40047 6.00002 5.66284 7.01856 7.09367 7.74466C8.5245 8.47075 10.0919 8.88821 11.6943 8.97C11.6323 8.67 11.5943 8.359 11.5943 8.047C11.5941 7.51796 11.6981 6.99406 11.9004 6.50524C12.1027 6.01642 12.3994 5.57227 12.7735 5.19819C13.1476 4.8241 13.5918 4.52741 14.0806 4.32508C14.5694 4.12274 15.0933 4.01873 15.6223 4.019C16.7823 4.019 17.8293 4.505 18.5653 5.291C19.4671 5.11661 20.3319 4.78742 21.1213 4.318C20.8207 5.24881 20.1911 6.0381 19.3503 6.538C20.1501 6.44678 20.9318 6.23645 21.6693 5.914C21.1185 6.7171 20.4359 7.42134 19.6503 7.997Z" fill="#F1F5F9"/>
</svg>
