<svg width="25" height="24" viewBox="0 0 25 24" fill="none" xmlns="http://www.w3.org/2000/svg">
<path d="M12.0337 7.377C10.8073 7.377 9.63117 7.86417 8.76401 8.73134C7.89684 9.59851 7.40967 10.7746 7.40967 12.001C7.40967 13.2274 7.89684 14.4035 8.76401 15.2707C9.63117 16.1378 10.8073 16.625 12.0337 16.625C13.26 16.625 14.4362 16.1378 15.3033 15.2707C16.1705 14.4035 16.6577 13.2274 16.6577 12.001C16.6577 10.7746 16.1705 9.59851 15.3033 8.73134C14.4362 7.86417 13.26 7.377 12.0337 7.377ZM12.0337 15.004C11.237 15.004 10.4729 14.6875 9.90952 14.1241C9.34616 13.5608 9.02967 12.7967 9.02967 12C9.02967 11.2033 9.34616 10.4392 9.90952 9.87585C10.4729 9.31249 11.237 8.996 12.0337 8.996C12.8304 8.996 13.5945 9.31249 14.1578 9.87585C14.7212 10.4392 15.0377 11.2033 15.0377 12C15.0377 12.7967 14.7212 13.5608 14.1578 14.1241C13.5945 14.6875 12.8304 15.004 12.0337 15.004Z" fill="#F1F5F9"/>
<path d="M16.8407 8.285C17.436 8.285 17.9187 7.80236 17.9187 7.207C17.9187 6.61163 17.436 6.129 16.8407 6.129C16.2453 6.129 15.7627 6.61163 15.7627 7.207C15.7627 7.80236 16.2453 8.285 16.8407 8.285Z" fill="#F1F5F9"/>
<path d="M20.5677 6.111C20.3362 5.51319 19.9824 4.97029 19.529 4.51706C19.0756 4.06384 18.5326 3.71028 17.9347 3.479C17.235 3.21636 16.4959 3.07435 15.7487 3.059C14.7857 3.017 14.4807 3.005 12.0387 3.005C9.59668 3.005 9.28368 3.005 8.32868 3.059C7.58207 3.07356 6.84344 3.21561 6.14468 3.479C5.54662 3.71001 5.00345 4.06348 4.55002 4.51673C4.09659 4.96999 3.74291 5.51303 3.51168 6.111C3.24899 6.81062 3.1073 7.54984 3.09268 8.297C3.04968 9.259 3.03668 9.564 3.03668 12.007C3.03668 14.449 3.03668 14.76 3.09268 15.717C3.10768 16.465 3.24868 17.203 3.51168 17.904C3.74356 18.5018 4.09758 19.0446 4.55112 19.4978C5.00466 19.951 5.54775 20.3046 6.14568 20.536C6.84312 20.8092 7.58205 20.9614 8.33068 20.986C9.29368 21.028 9.59868 21.041 12.0407 21.041C14.4827 21.041 14.7957 21.041 15.7507 20.986C16.4978 20.9708 17.2369 20.8291 17.9367 20.567C18.5344 20.3352 19.0773 19.9813 19.5307 19.528C19.984 19.0746 20.3379 18.5318 20.5697 17.934C20.8327 17.234 20.9737 16.496 20.9887 15.748C21.0317 14.786 21.0447 14.481 21.0447 12.038C21.0447 9.59501 21.0447 9.285 20.9887 8.328C20.977 7.57028 20.8346 6.82025 20.5677 6.111ZM19.3497 15.643C19.3432 16.2193 19.238 16.7902 19.0387 17.331C18.8885 17.7199 18.6586 18.073 18.3638 18.3677C18.0689 18.6624 17.7156 18.8921 17.3267 19.042C16.7919 19.2405 16.227 19.3456 15.6567 19.353C14.7067 19.397 14.4387 19.408 12.0027 19.408C9.56468 19.408 9.31568 19.408 8.34768 19.353C7.77761 19.346 7.21301 19.2408 6.67868 19.042C6.28837 18.893 5.93368 18.6637 5.63757 18.369C5.34146 18.0742 5.11052 17.7206 4.95968 17.331C4.76313 16.7961 4.65799 16.2318 4.64868 15.662C4.60568 14.712 4.59568 14.444 4.59568 12.008C4.59568 9.571 4.59568 9.322 4.64868 8.353C4.65515 7.77703 4.76034 7.20642 4.95968 6.666C5.26468 5.877 5.88968 5.256 6.67868 4.954C7.21327 4.75614 7.77771 4.65097 8.34768 4.643C9.29868 4.6 9.56568 4.588 12.0027 4.588C14.4397 4.588 14.6897 4.588 15.6567 4.643C16.2271 4.64987 16.792 4.75508 17.3267 4.954C17.7156 5.10428 18.0688 5.33421 18.3637 5.62903C18.6585 5.92386 18.8884 6.27708 19.0387 6.666C19.2352 7.20095 19.3404 7.76516 19.3497 8.335C19.3927 9.28601 19.4037 9.553 19.4037 11.99C19.4037 14.426 19.4037 14.688 19.3607 15.644H19.3497V15.643Z" fill="#F1F5F9"/>
</svg>
