<svg width="20" height="20" viewBox="0 0 20 20" fill="none" xmlns="http://www.w3.org/2000/svg">
<path fill-rule="evenodd" clip-rule="evenodd" d="M10.026 0.272232C4.517 0.272232 0.052002 4.73723 0.052002 10.2462C0.052002 14.6522 2.909 18.3912 6.873 19.7112C7.372 19.8012 7.552 19.4942 7.552 19.2302C7.552 18.9932 7.544 18.3652 7.541 17.5342C4.766 18.1362 4.18 16.1962 4.18 16.1962C3.728 15.0442 3.073 14.7372 3.073 14.7372C2.168 14.1182 3.142 14.1322 3.142 14.1322C4.144 14.2022 4.669 15.1602 4.669 15.1602C5.559 16.6842 7.005 16.2442 7.571 15.9892C7.662 15.3442 7.922 14.9042 8.206 14.6552C5.992 14.4042 3.664 13.5482 3.664 9.72523C3.664 8.63823 4.053 7.74623 4.688 7.05023C4.587 6.79723 4.242 5.78223 4.787 4.41023C4.787 4.41023 5.624 4.14123 7.529 5.43123C8.3426 5.2099 9.18184 5.09693 10.025 5.09523C10.8682 5.0966 11.7075 5.20958 12.521 5.43123C14.427 4.14023 15.263 4.41023 15.263 4.41023C15.808 5.78223 15.466 6.79723 15.362 7.05023C16.002 7.74623 16.386 8.63723 16.386 9.72523C16.386 13.5582 14.056 14.4002 11.834 14.6472C12.189 14.9552 12.509 15.5632 12.509 16.4932C12.509 17.8272 12.497 18.9032 12.497 19.2302C12.497 19.4972 12.675 19.8072 13.184 19.7092C17.146 18.3872 20 14.6512 20 10.2462C20 4.73723 15.535 0.272232 10.026 0.272232Z" fill="#F1F5F9"/>
</svg>
